<?xml version="1.0" encoding="UTF-8"?>
<svg id="Layer_1" data-name="Layer 1" xmlns="http://www.w3.org/2000/svg" viewBox="0 0 146.68 38.79">
  <defs>
    <style>
      .cls-1 {
        fill: #fff;
        stroke-width: 0px;
      }
    </style>
  </defs>
  <path class="cls-1" d="M10.39,8.63v2.3h-4.49v14.38c0,2.19.98,3.18,2.93,2.99.18,0,.41-.02.67-.07.27-.05.52-.09.75-.15l.55,2.29c-.56.18-1.22.29-1.99.31-1.73.12-3.09-.3-4.08-1.24-.99-.94-1.48-2.26-1.48-3.96v-14.55H0v-2.3h3.24V3.44h2.66v5.2h4.49Z"/>
  <path class="cls-1" d="M15.14,38.34l.72-2.3.31.1c1.16.36,2.16.33,3.02-.11.85-.44,1.56-1.44,2.12-3l.86-2.38L13.79,8.63h2.89l5.04,13.73c.36.98.69,1.95.98,2.92.29.97.57,1.93.84,2.88.29-.95.58-1.91.87-2.88.29-.97.62-1.94.99-2.92l5.06-13.73h2.87l-9.69,25.39c-1.22,3.18-3.22,4.77-5.98,4.77-.53,0-1.02-.05-1.46-.14-.44-.09-.79-.2-1.05-.31Z"/>
  <path class="cls-1" d="M40.68,16.86v13.61h-2.66V8.63h2.56l.02,4.02c.66-1.51,1.59-2.61,2.79-3.29,1.2-.68,2.54-1.03,4.02-1.03,2.21,0,4.01.69,5.39,2.06,1.38,1.37,2.07,3.36,2.07,5.95v14.12h-2.64v-13.93c0-1.78-.5-3.19-1.5-4.23-1-1.04-2.34-1.55-4.02-1.55s-3.15.55-4.31,1.64-1.73,2.58-1.73,4.45Z"/>
  <path class="cls-1" d="M69.38,30.94c-1.78,0-3.35-.47-4.69-1.42-1.34-.94-2.39-2.27-3.13-3.96-.75-1.7-1.12-3.68-1.12-5.95s.38-4.22,1.13-5.91c.75-1.69,1.81-3,3.15-3.95,1.35-.94,2.91-1.42,4.68-1.42,1.33,0,2.43.24,3.32.71.89.48,1.6,1.06,2.14,1.75.54.69.95,1.37,1.24,2.03h.21V1.37h2.64v29.1h-2.56v-4.08h-.29c-.29.68-.7,1.37-1.25,2.07s-1.27,1.29-2.16,1.77c-.89.48-2,.71-3.31.71ZM69.73,28.54c1.41,0,2.6-.38,3.58-1.15.98-.77,1.73-1.83,2.25-3.17.51-1.35.77-2.89.77-4.62s-.26-3.26-.77-4.59c-.51-1.33-1.26-2.37-2.25-3.12-.98-.75-2.18-1.13-3.58-1.13s-2.64.39-3.62,1.17c-.98.78-1.73,1.84-2.24,3.17-.51,1.33-.76,2.84-.76,4.5s.26,3.19.77,4.54c.51,1.35,1.26,2.42,2.25,3.21.98.79,2.18,1.19,3.6,1.19Z"/>
  <path class="cls-1" d="M98.14,8.63v5.7h-4.16v16.13h-7.81V14.34h-3.48v-5.7h3.48v-.62c0-2.68.71-4.69,2.12-6.02,1.41-1.33,3.31-1.99,5.69-1.99,1,0,1.98.08,2.92.23.94.16,1.64.29,2.08.39l-1.13,5.62c-.66-.18-1.33-.27-1.99-.27-.73,0-1.22.16-1.48.47-.26.31-.39.73-.39,1.25v.94h4.16Z"/>
  <path class="cls-1" d="M111.05,30.86c-3.5,0-6.25-.99-8.25-2.98-2-1.99-3-4.74-3-8.27,0-2.25.45-4.22,1.36-5.91.9-1.69,2.18-3,3.84-3.94,1.65-.94,3.61-1.41,5.86-1.41s4.11.45,5.74,1.36c1.63.91,2.89,2.19,3.78,3.87.89,1.67,1.34,3.67,1.34,5.99v1.8h-14.22c.05,1.35.41,2.36,1.08,3.01.67.65,1.55.98,2.63.98.81,0,1.5-.17,2.07-.5.57-.33.98-.8,1.21-1.4l6.91,1.02c-.56,1.97-1.73,3.52-3.51,4.67-1.78,1.15-4.06,1.72-6.85,1.72ZM107.56,17.07h6.76c-.25-2.14-1.37-3.2-3.38-3.2s-3.13,1.07-3.38,3.2Z"/>
  <path class="cls-1" d="M132.66,30.74c-1.55,0-2.98-.41-4.29-1.22-1.31-.81-2.35-2.05-3.13-3.7-.78-1.65-1.17-3.74-1.17-6.25,0-2.64.41-4.79,1.23-6.44.82-1.65,1.88-2.85,3.18-3.62,1.3-.77,2.67-1.15,4.1-1.15,1.63,0,2.95.4,3.97,1.21,1.02.81,1.74,1.77,2.16,2.89h.12V1.37h7.85v29.1h-7.77v-3.59h-.2c-.44,1.11-1.18,2.03-2.21,2.76-1.03.74-2.31,1.1-3.85,1.1ZM135.55,24.73c1.08,0,1.93-.47,2.55-1.4.62-.93.93-2.18.93-3.76s-.31-2.9-.93-3.82c-.62-.92-1.47-1.38-2.55-1.38s-1.92.46-2.51,1.38c-.59.92-.89,2.19-.89,3.82s.3,2.88.89,3.79c.59.91,1.43,1.37,2.51,1.37Z"/>
</svg>